<svg width="215" height="36" viewBox="0 0 215 36" fill="none" xmlns="http://www.w3.org/2000/svg">
<path fill-rule="evenodd" clip-rule="evenodd" d="M210.381 12.8707H192.476V30.7755H210.381V12.8707ZM188 8.39453V35.2517H214.857V8.39453H188Z" fill="#F2F2F2"/>
<path d="M0.637816 2.29614H24.9599C26.1221 2.29614 27.1143 2.18275 27.9364 1.95597C28.7868 1.70084 29.3821 1.43154 29.7223 1.14807C30.0908 0.864596 30.4451 0.60947 30.7853 0.38269C31.1254 0.127563 31.4231 0 31.6782 0C32.2452 0 32.5286 0.354342 32.5286 1.06303V14.117L33.8893 12.9689C35.0232 12.0335 35.9162 11.3248 36.5681 10.8429C37.2201 10.361 38.028 9.92159 38.9919 9.52473C39.9557 9.09952 40.9195 8.88691 41.8833 8.88691C43.6125 8.88691 44.9732 9.48221 45.9653 10.6728C46.9858 11.8634 47.4961 13.3941 47.4961 15.2651V30.4451C47.4961 31.6924 47.7228 32.557 48.1764 33.0389C48.63 33.4925 49.4379 33.7192 50.6001 33.7192C51.1104 33.7192 51.3655 33.9177 51.3655 34.3145C51.3655 34.6547 51.1529 34.8248 50.7277 34.8248H39.2045C38.7792 34.8248 38.5666 34.6547 38.5666 34.3145C38.5666 33.9177 38.8218 33.7192 39.332 33.7192C40.2391 33.7192 40.9053 33.4499 41.3305 32.9113C41.7557 32.3727 42.0675 31.2955 42.266 29.6797C42.4928 28.0356 42.6061 25.541 42.6061 22.196C42.6061 19.3329 42.4502 17.1218 42.1384 15.5627C41.8549 14.0036 41.4864 12.9973 41.0329 12.5437C40.5793 12.0902 39.9557 11.8634 39.1619 11.8634C38.9068 11.8634 38.6375 11.8917 38.354 11.9484C38.0989 11.9768 37.8154 12.076 37.5036 12.2461C37.1918 12.4162 36.9225 12.5579 36.6957 12.6713C36.4973 12.7563 36.1855 12.9548 35.7602 13.2666C35.3634 13.5784 35.0657 13.8194 34.8673 13.9894C34.6689 14.1312 34.2862 14.4288 33.7192 14.8824C33.1523 15.3359 32.7554 15.6478 32.5286 15.8179V23.174C32.5286 27.0293 32.5995 29.453 32.7412 30.4451C32.9113 31.8058 33.1665 32.6987 33.5066 33.1239C33.8751 33.5208 34.6547 33.7192 35.8453 33.7192C36.3555 33.7192 36.6107 33.9177 36.6107 34.3145C36.6107 34.6547 36.3981 34.8248 35.9729 34.8248H24.1945C23.7693 34.8248 23.5567 34.6547 23.5567 34.3145C23.5567 33.9177 23.8118 33.7192 24.3221 33.7192C25.5127 33.7192 26.3206 33.4925 26.7458 33.0389C27.1993 32.5853 27.4828 31.7207 27.5962 30.4451C27.7663 28.0639 27.8513 25.6402 27.8513 23.174V9.52473C27.8513 7.22859 27.6812 5.74035 27.3411 5.06001C27.0292 4.35133 26.278 3.99698 25.0875 3.99698H16.158V20.1125C16.158 25.215 16.2431 28.56 16.4131 30.1475C16.5549 31.4231 16.9801 32.3302 17.6888 32.8688C18.4258 33.4074 19.5739 33.6767 21.133 33.6767C21.6716 33.6767 21.9409 33.8893 21.9409 34.3145C21.9409 34.6547 21.7283 34.8248 21.3031 34.8248H6.08052C5.65531 34.8248 5.4427 34.6547 5.4427 34.3145C5.4427 33.8893 5.69783 33.6767 6.20808 33.6767C7.85223 33.6767 9.01447 33.4074 9.69481 32.8688C10.3751 32.3302 10.772 31.4231 10.8854 30.1475C11.0555 27.7663 11.1405 24.4071 11.1405 20.07V3.99698H7.22859C5.4427 3.99698 3.98281 4.64897 2.84891 5.95295C1.71502 7.25694 1.14807 8.64596 1.14807 10.12C1.14807 10.4885 0.935464 10.6728 0.510253 10.6728C0.170084 10.6728 0 10.5027 0 10.1625V2.97648C0 2.693 0.0425211 2.50875 0.127563 2.4237C0.240953 2.33866 0.411037 2.29614 0.637816 2.29614Z" fill="#F2F2F2"/>
<path d="M72.1307 27.9789C72.1307 29.623 71.3512 31.253 69.7921 32.8688C68.233 34.4563 65.9935 35.25 63.0737 35.25C59.7854 35.25 57.1633 34.2011 55.2073 32.1034C53.2514 29.9774 52.2734 26.8875 52.2734 22.8338C52.2734 18.7235 53.2797 15.3785 55.2924 12.7989C57.305 10.1909 60.1965 8.88691 63.9667 8.88691C64.9305 8.88691 65.8518 9.02865 66.7306 9.31212C67.6377 9.5956 68.5023 10.035 69.3243 10.6303C70.1748 11.2256 70.8551 12.0902 71.3654 13.2241C71.8756 14.358 72.1307 15.6761 72.1307 17.1785C72.1307 17.9439 71.9323 18.4825 71.5354 18.7943C71.1386 19.1062 70.4724 19.2621 69.5369 19.2621H57.2484C57.2484 23.259 57.9287 26.3773 59.2894 28.6167C60.65 30.8562 62.5068 31.9759 64.8596 31.9759C66.3904 31.9759 67.6518 31.6782 68.644 31.0829C69.6645 30.4593 70.5575 29.3679 71.3228 27.8088C71.4362 27.582 71.5921 27.4686 71.7906 27.4686C72.0173 27.4686 72.1307 27.6387 72.1307 27.9789ZM63.1163 10.2476C61.4438 10.2476 60.1256 10.9988 59.1618 12.5012C58.2263 13.9753 57.6169 15.8604 57.3334 18.1565L65.1573 17.6037C65.8093 17.5754 66.2486 17.4337 66.4754 17.1785C66.7022 16.9234 66.8156 16.5407 66.8156 16.0305C66.8156 12.1752 65.5825 10.2476 63.1163 10.2476Z" fill="#F2F2F2"/>
<path d="M84.8037 35.25C81.4303 35.25 78.8082 34.2011 76.9373 32.1034C75.0947 29.9774 74.1734 26.9726 74.1734 23.089C74.1734 18.3833 75.2648 14.8399 77.4475 12.4587C79.6586 10.0775 82.5926 8.88691 86.2494 8.88691C89.5944 8.88691 92.2024 9.99246 94.0733 12.2036C95.9726 14.3863 96.9222 17.4195 96.9222 21.3031C96.9222 25.9804 95.8167 29.4813 93.6056 31.8058C91.4228 34.1019 88.4888 35.25 84.8037 35.25ZM85.9518 33.7618C88.0495 33.7618 89.5235 32.8121 90.3739 30.9128C91.2527 28.9852 91.6921 26.278 91.6921 22.7913C91.6921 19.0495 91.1677 16.0446 90.1188 13.7768C89.0983 11.4807 87.5109 10.3326 85.3565 10.3326C83.2871 10.3326 81.7705 11.3531 80.8067 13.3941C79.8429 15.4068 79.361 18.1282 79.361 21.5582C79.361 25.2434 79.8996 28.2057 80.9768 30.4451C82.0823 32.6562 83.7407 33.7618 85.9518 33.7618Z" fill="#F2F2F2"/>
<path d="M106.967 16.1155C108.073 11.2964 110.17 8.88691 113.26 8.88691C114.394 8.88691 115.287 9.17039 115.939 9.73734C116.591 10.3043 116.917 11.1689 116.917 12.3311C116.917 13.465 116.506 14.2729 115.684 14.7548C114.862 15.2367 113.997 15.4777 113.09 15.4777C113.09 13.6635 112.467 12.7563 111.219 12.7563C110.029 12.7563 108.994 13.6776 108.115 15.5202C107.265 17.3344 106.84 19.4888 106.84 21.9834C106.84 25.8387 106.925 28.56 107.095 30.1475C107.265 31.4514 107.69 32.3727 108.37 32.9113C109.051 33.4499 110.241 33.7192 111.942 33.7192C112.452 33.7192 112.707 33.9177 112.707 34.3145C112.707 34.6547 112.495 34.8248 112.07 34.8248H98.8031C98.3779 34.8248 98.1653 34.6547 98.1653 34.3145C98.1653 33.9177 98.4204 33.7192 98.9306 33.7192C100.008 33.7192 100.787 33.4499 101.269 32.9113C101.78 32.3444 102.091 31.4231 102.205 30.1475C102.375 27.7663 102.46 25.4418 102.46 23.174V21.3456C102.46 20.0983 102.446 19.0778 102.417 18.2841C102.389 17.462 102.29 16.5974 102.12 15.6903C101.978 14.7548 101.78 14.032 101.524 13.5217C101.269 12.9831 100.901 12.5437 100.419 12.2036C99.937 11.835 99.3559 11.6508 98.6755 11.6508H97.655C97.2298 11.6508 97.0172 11.4949 97.0172 11.1831C97.0172 10.8996 97.2298 10.7011 97.655 10.5878C98.4487 10.361 99.7811 10.1059 101.652 9.82238C103.523 9.5389 104.657 9.39717 105.054 9.39717C106.329 9.39717 106.967 11.6366 106.967 16.1155Z" fill="#F2F2F2"/>
<path d="M136.336 27.9789C136.336 29.623 135.556 31.253 133.997 32.8688C132.438 34.4563 130.199 35.25 127.279 35.25C123.991 35.25 121.369 34.2011 119.413 32.1034C117.457 29.9774 116.479 26.8875 116.479 22.8338C116.479 18.7235 117.485 15.3785 119.498 12.7989C121.51 10.1909 124.402 8.88691 128.172 8.88691C129.136 8.88691 130.057 9.02865 130.936 9.31212C131.843 9.5956 132.707 10.035 133.53 10.6303C134.38 11.2256 135.06 12.0902 135.571 13.2241C136.081 14.358 136.336 15.6761 136.336 17.1785C136.336 17.9439 136.137 18.4825 135.741 18.7943C135.344 19.1062 134.678 19.2621 133.742 19.2621H121.454C121.454 23.259 122.134 26.3773 123.495 28.6167C124.855 30.8562 126.712 31.9759 129.065 31.9759C130.596 31.9759 131.857 31.6782 132.849 31.0829C133.87 30.4593 134.763 29.3679 135.528 27.8088C135.641 27.582 135.797 27.4686 135.996 27.4686C136.223 27.4686 136.336 27.6387 136.336 27.9789ZM127.321 10.2476C125.649 10.2476 124.331 10.9988 123.367 12.5012C122.432 13.9753 121.822 15.8604 121.539 18.1565L129.362 17.6037C130.014 17.5754 130.454 17.4337 130.681 17.1785C130.907 16.9234 131.021 16.5407 131.021 16.0305C131.021 12.1752 129.788 10.2476 127.321 10.2476Z" fill="#F2F2F2"/>
<path d="M160.447 14.1595L161.893 12.9689C162.148 12.7705 162.573 12.4162 163.168 11.9059C163.764 11.3957 164.175 11.0555 164.402 10.8854C164.628 10.7153 164.983 10.4602 165.465 10.12C165.975 9.77986 166.386 9.55308 166.698 9.43969C167.038 9.29795 167.435 9.17039 167.888 9.057C168.37 8.94361 168.866 8.88691 169.376 8.88691C171.106 8.88691 172.438 9.48221 173.373 10.6728C174.337 11.835 174.819 13.3658 174.819 15.2651V30.4451C174.819 31.6924 175.046 32.557 175.5 33.0389C175.953 33.4925 176.761 33.7192 177.923 33.7192C178.433 33.7192 178.689 33.9177 178.689 34.3145C178.689 34.6547 178.476 34.8248 178.051 34.8248H166.528C166.102 34.8248 165.89 34.6547 165.89 34.3145C165.89 33.9177 166.145 33.7192 166.655 33.7192C167.562 33.7192 168.228 33.4499 168.654 32.9113C169.079 32.3727 169.391 31.2955 169.589 29.6797C169.816 28.0356 169.929 25.541 169.929 22.196C169.929 19.3329 169.788 17.136 169.504 15.6052C169.221 14.0745 168.866 13.0965 168.441 12.6713C168.044 12.2461 167.477 12.0335 166.74 12.0335C166.457 12.0335 166.159 12.076 165.847 12.161C165.535 12.2461 165.266 12.3453 165.039 12.4587C164.813 12.5721 164.487 12.7705 164.061 13.054C163.664 13.3375 163.353 13.5784 163.126 13.7768C162.899 13.9469 162.488 14.2729 161.893 14.7548C161.297 15.2084 160.844 15.5627 160.532 15.8179V30.4451C160.532 31.6924 160.759 32.557 161.212 33.0389C161.666 33.4925 162.474 33.7192 163.636 33.7192C164.146 33.7192 164.402 33.9177 164.402 34.3145C164.402 34.6547 164.189 34.8248 163.764 34.8248H152.24C151.815 34.8248 151.603 34.6547 151.603 34.3145C151.603 33.9177 151.858 33.7192 152.368 33.7192C153.275 33.7192 153.941 33.4499 154.367 32.9113C154.792 32.3727 155.104 31.2955 155.302 29.6797C155.529 28.0356 155.642 25.541 155.642 22.196C155.642 19.3329 155.5 17.136 155.217 15.6052C154.933 14.0745 154.579 13.0965 154.154 12.6713C153.757 12.2461 153.19 12.0335 152.453 12.0335C152.17 12.0335 151.872 12.076 151.56 12.161C151.248 12.2461 150.979 12.3453 150.752 12.4587C150.525 12.5721 150.199 12.7705 149.774 13.054C149.377 13.3375 149.066 13.5784 148.839 13.7768C148.612 13.9469 148.201 14.2729 147.606 14.7548C147.01 15.2084 146.557 15.5627 146.245 15.8179C146.217 16.7533 146.202 18.5959 146.202 21.3456V23.174C146.202 26.6891 146.288 29.0419 146.458 30.2325C146.571 31.0262 146.656 31.579 146.713 31.8908C146.769 32.2027 146.897 32.5428 147.095 32.9113C147.322 33.2515 147.62 33.4783 147.988 33.5917C148.357 33.6767 148.867 33.7192 149.519 33.7192C150.058 33.7192 150.327 33.9177 150.327 34.3145C150.327 34.6547 150.114 34.8248 149.689 34.8248H137.996C137.571 34.8248 137.358 34.6547 137.358 34.3145C137.358 33.9177 137.613 33.7192 138.123 33.7192C139.796 33.6909 140.802 33.0672 141.142 31.8483C141.483 30.601 141.653 27.7096 141.653 23.174V21.133C141.653 20.0274 141.639 19.177 141.61 18.5817C141.61 17.9581 141.582 17.2211 141.525 16.3706C141.497 15.4919 141.412 14.8257 141.27 14.3721C141.157 13.9186 141.001 13.4508 140.802 12.9689C140.604 12.487 140.349 12.1469 140.037 11.9484C139.725 11.75 139.342 11.6508 138.889 11.6508H137.698C137.33 11.6508 137.145 11.509 137.145 11.2256C137.145 10.8571 138.166 10.4602 140.207 10.035C142.276 9.60977 143.793 9.39717 144.757 9.39717C145.834 9.39717 146.373 10.0917 146.373 11.4807C146.373 12.5862 146.358 13.4367 146.33 14.032L147.606 12.9689C147.747 12.8555 148.102 12.5579 148.669 12.076C149.264 11.5657 149.633 11.2539 149.774 11.1405C149.916 11.0271 150.214 10.8004 150.667 10.4602C151.149 10.0917 151.503 9.8649 151.73 9.77986C151.985 9.66647 152.311 9.52473 152.708 9.35465C153.105 9.15621 153.488 9.02865 153.856 8.97196C154.253 8.91526 154.664 8.88691 155.089 8.88691C156.62 8.88691 157.839 9.36882 158.746 10.3326C159.682 11.2964 160.249 12.5721 160.447 14.1595Z" fill="#F2F2F2"/>
</svg>
